HIERARCHY
ROOT hip
{
	OFFSET 0.000000 0.000000 0.000000 
	CHANNELS 6 Xposition Yposition Zposition Xrotation Zrotation Yrotation
	JOINT abdomen
	{
		OFFSET 0.000000 3.402643 0.000000 
		CHANNELS 3 Xrotation Zrotation Yrotation
		JOINT chest
		{
			OFFSET 0.000000 8.438565 -0.680529 
			CHANNELS 3 Xrotation Zrotation Yrotation
			JOINT neck
			{
				OFFSET 0.000000 10.207942 -0.272212 
				CHANNELS 3 Xrotation Zrotation Yrotation
				JOINT head
				{
					OFFSET 0.000000 3.130431 0.000000 
					CHANNELS 3 Xrotation Zrotation Yrotation
					End Site
					{
						OFFSET 0.000000 3.130435 0.000000 
					}
				}
			}
			JOINT lCollar
			{
				OFFSET 3.470700 6.669187 -0.816635 
				CHANNELS 3 Yrotation Zrotation Xrotation
				JOINT lShldr
				{
					OFFSET 3.198488 0.000000 0.000000 
					CHANNELS 3 Zrotation Yrotation Xrotation
					JOINT lForeArm
					{
						OFFSET 10.139888 0.000000 0.000000 
						CHANNELS 3 Yrotation Zrotation Xrotation
						JOINT lHand
						{
							OFFSET 8.370511 0.000000 0.000000 
							CHANNELS 3 Zrotation Yrotation Xrotation
							End Site
							{
								OFFSET 4.083176 0.000000 0.000000 
							}
						}
					}
				}
			}
			JOINT rCollar
			{
				OFFSET -3.470700 6.669187 -0.816635 
				CHANNELS 3 Yrotation Zrotation Xrotation
				JOINT rShldr
				{
					OFFSET -3.198488 0.000000 0.000000 
					CHANNELS 3 Zrotation Yrotation Xrotation
					JOINT rForeArm
					{
						OFFSET -10.139888 0.000000 0.000000 
						CHANNELS 3 Yrotation Zrotation Xrotation
						JOINT rHand
						{
							OFFSET -8.370511 0.000000 0.000000 
							CHANNELS 3 Zrotation Yrotation Xrotation
							End Site
							{
								OFFSET -4.083176 0.000000 0.000000 
							}
						}
					}
				}
			}
		}
	}
	JOINT lThigh
	{
		OFFSET 5.308129 -1.633274 1.361059 
		CHANNELS 3 Xrotation Zrotation Yrotation
		JOINT lShin
		{
			OFFSET -2.041588 -20.007561 0.000000 
			CHANNELS 3 Xrotation Zrotation Yrotation
			JOINT lFoot
			{
				OFFSET 0.000000 -19.190928 -1.224953 
				CHANNELS 3 Xrotation Yrotation Zrotation
				End Site
				{
					OFFSET 0.000000 -2.449906 4.627600 
				}
			}
		}
	}
	JOINT rThigh
	{
		OFFSET -5.308129 -1.633274 1.361059 
		CHANNELS 3 Xrotation Zrotation Yrotation
		JOINT rShin
		{
			OFFSET 2.041588 -20.007561 0.000000 
			CHANNELS 3 Xrotation Zrotation Yrotation
			JOINT rFoot
			{
				OFFSET 0.000000 -19.190928 -1.224953 
				CHANNELS 3 Xrotation Yrotation Zrotation
				End Site
				{
					OFFSET 0.000000 -2.449906 4.627600 
				}
			}
		}
	}
}
MOTION
Frames: 18
Frame Time: 0.033333
-1.654020 50.387234 3.509804 -6.513672 1.210938 -13.691408 71.624336 -15.672311 9.046031 -25.117189 1.435547 -5.263672 51.063168 8.107644 2.471410 -89.462891 -5.087890 4.940541 2.000000 -2.000000 0.000000 -41.494141 10.976563 0.763578 -99.428391 -0.107180 -3.237071 41.199989 38.267494 37.798096 -2.000000 2.000000 0.000000 85.058594 -38.232422 -15.351563 103.942551 -0.599673 -3.023729 21.394896 -43.381596 -23.881868 12.216002 10.556660 16.226147 20.028610 -4.929826 -1.914495 -15.347936 -1.720190 -2.230435 -16.434856 -19.842655 -8.234984 69.042397 1.611882 4.461130 14.308631 -12.927058 10.626004 
-3.308027 49.646694 7.019584 -3.720703 0.166016 -15.488280 70.761459 -11.345018 5.034914 -24.902344 3.525390 -3.691406 51.063168 8.107644 2.471410 -87.099609 -8.720703 12.226564 2.000000 -2.000000 0.000000 -35.957027 3.505859 -5.009167 -104.673584 0.631742 -2.976801 46.423584 29.537642 27.729563 -2.000000 2.000000 0.000000 97.802734 -37.587894 -27.896585 106.051186 -0.688330 -3.351414 5.194706 -48.016148 -22.496740 15.846428 12.235970 18.798588 18.292446 -5.032176 -1.610934 -17.508566 -1.661159 -0.042183 -26.375511 -17.967737 -5.070574 68.349419 1.679506 4.434253 10.998343 -8.006957 7.307625 
-5.128621 48.622543 10.707916 -0.908203 -0.878906 -17.226563 69.801308 -7.136247 1.225161 -24.492188 5.625000 -2.246094 51.063168 8.107644 2.471410 -85.898438 -11.367186 18.867189 2.000000 -2.000000 0.000000 -30.654295 -0.800781 -10.517715 -108.183777 0.954446 -2.809735 51.069355 23.546547 19.223127 -2.000000 2.000000 0.000000 103.281250 -37.216801 -33.150436 106.227821 -0.657395 -3.378964 -7.420838 -51.153599 -19.729021 21.698080 12.959087 21.128729 13.503312 -5.085849 -1.198564 -17.946779 -2.004945 0.420956 -33.127239 -15.670155 -3.164902 64.137764 2.040997 4.323214 9.137728 -4.675940 6.096814 
-7.342934 47.614143 14.681191 1.230469 -1.582031 -18.867455 68.970566 -3.729175 -1.932720 -24.287111 7.011719 -1.044922 51.063168 8.107644 2.471410 -86.279297 -12.177733 24.794926 2.000000 -2.000000 0.000000 -29.687500 -1.386719 -13.115469 -107.316109 0.561407 -3.177964 53.417103 20.928682 15.848745 -2.000000 2.000000 0.000000 99.980469 -38.417965 -30.097656 102.711044 -0.718141 -3.343356 -16.058933 -53.054478 -14.957605 27.559952 13.505267 22.845991 8.380786 -5.006676 -0.595025 -12.509375 -1.589471 0.617004 -34.828857 -12.205245 -2.203679 53.243881 2.909827 3.895633 11.102056 -4.870131 6.961412 
-9.723820 48.772224 18.832903 2.460938 -2.285156 -19.814844 68.777237 -1.227497 -4.015535 -24.082033 7.705078 -0.078125 51.063168 8.107644 2.471410 -87.744141 -11.376951 29.179688 2.000000 -2.000000 0.000000 -34.248047 0.615234 -11.474610 -100.800919 0.672283 -2.783588 50.513733 22.983171 18.077339 -2.000000 2.000000 0.000000 92.919922 -39.238281 -23.775707 96.924530 -0.124941 -3.113585 -22.006414 -53.788483 -9.776721 28.477930 15.467774 22.641203 11.919938 -4.917533 -1.043030 2.917314 0.378607 1.425719 -33.501553 -8.729585 -1.663786 39.556717 3.866809 3.294184 14.712652 -7.087076 7.591107 
-11.756433 48.528008 23.022919 1.054688 -2.636710 -20.117695 71.152351 -0.576785 -3.469704 -24.658205 5.810547 -0.312500 51.063168 8.107644 2.471410 -90.253906 -8.173827 29.843750 2.000000 -2.000000 0.000000 -40.576172 1.904297 -7.499999 -90.266212 0.073059 -2.827051 45.332561 27.339924 24.059364 -2.000000 2.000000 0.000000 86.757813 -36.884766 -17.359377 90.078812 0.245534 -3.092218 -24.993925 -54.888321 -5.313569 19.936327 17.566666 16.064718 30.259752 -4.630671 -2.566827 13.914639 7.511990 0.472080 -30.745707 -7.117751 -2.027208 31.647293 4.315884 2.755157 11.257746 -7.484869 6.651756 
-13.378676 48.535881 27.188862 -2.470703 -2.656269 -19.248365 75.141212 -2.095012 -0.588052 -25.449221 2.314453 -1.181641 51.063168 8.107644 2.471410 -93.056641 -4.169921 25.742189 2.000000 -2.000000 0.000000 -45.820309 3.164063 -1.835397 -78.343483 -0.729205 -2.829400 39.614635 33.982040 31.542681 -2.000000 2.000000 0.000000 83.339844 -31.904299 -13.540316 82.699928 0.457920 -2.874550 -25.863691 -56.925549 -1.980600 4.745073 17.733984 5.215050 58.980522 -3.154602 -4.320937 32.139183 9.843734 -7.446532 -24.861698 -8.974040 -3.143605 38.339394 4.052632 3.092863 -1.381974 -7.587325 5.479003 
-14.873629 48.748592 31.365454 -5.126953 -2.626953 -17.187948 76.903107 -4.967672 3.154226 -25.488281 0.390625 -1.835938 51.063168 8.107644 2.471410 -93.359375 -1.611328 19.306639 2.000000 -2.000000 0.000000 -50.830078 6.533203 5.156250 -67.458572 -1.283352 -2.601472 34.255257 41.579582 38.655308 -2.000000 2.000000 0.000000 76.640625 -25.644529 -7.744140 72.869499 0.815956 -2.638580 -18.413488 -62.028679 -2.944296 -7.284100 15.535677 -1.513938 77.274712 -0.905940 -4.768314 40.939735 4.849840 -12.216162 -20.012358 -11.372027 -6.388484 44.826134 3.524770 3.569449 -4.482832 -4.440073 5.273125 
-16.244186 49.174004 35.557316 -6.005859 -2.802735 -13.447743 75.009804 -9.040125 7.742997 -23.896484 1.416016 -1.728274 51.063168 8.107644 2.471410 -91.533203 -1.191406 11.132610 2.000000 -2.000000 0.000000 -55.458984 11.601563 11.835938 -60.244987 -1.533549 -2.362015 30.732555 48.092678 44.077469 -2.000000 2.000000 0.000000 65.429688 -20.322266 0.299342 61.622704 1.378697 -2.390815 -1.182697 -68.825493 -11.240496 -14.151649 13.518528 -3.676635 79.916580 -0.818984 -4.952249 35.858154 5.327744 -14.305061 -16.754665 -13.580518 -9.735990 50.471565 3.278577 3.818397 1.392180 -2.530018 6.792131 
-17.493126 49.953941 39.769440 -6.005860 -3.173828 -8.662108 70.446808 -13.873048 13.712083 -21.533205 4.150391 -1.445313 51.063168 8.107644 2.471410 -89.433594 -1.455078 1.230469 2.000000 -2.000000 0.000000 -55.429691 17.968750 15.673829 -60.414436 -1.394114 -2.487467 28.811657 53.890530 46.509918 -2.000000 2.000000 0.000000 55.742188 -19.785156 9.234976 55.462337 1.381165 -2.097081 9.049759 -72.609436 -14.800490 -19.074930 11.714897 -3.048291 76.045471 -1.013711 -4.750708 24.424303 9.018538 -14.569344 -8.396242 -13.605293 -16.410929 47.989510 3.300273 3.776311 1.039382 -2.325862 4.649370 
-18.623108 50.647205 44.006889 -6.005860 -3.173828 -4.970704 65.403130 -18.184158 19.067787 -19.667969 7.041016 -0.975365 51.063168 8.107644 2.471410 -87.998047 0.478516 -9.882731 2.000000 -2.000000 0.000000 -52.597656 25.332029 14.203397 -66.051163 -1.349332 -2.558521 27.601881 58.617435 47.487190 -2.000000 2.000000 0.000000 47.109375 -22.695313 24.595844 55.462578 1.401231 -2.105692 -7.532012 -73.628990 3.110743 -22.706305 10.425918 -1.872916 68.369247 -1.832973 -4.747931 10.610927 12.184944 -11.633816 1.490802 -12.483854 -23.392218 41.874142 3.364720 3.115177 1.394225 -1.908878 2.109732 
-19.632509 51.104141 48.266567 -6.005860 -2.988281 -2.353515 59.373119 -22.889154 24.010918 -18.281250 10.273438 -0.693359 51.063168 8.107644 2.471410 -87.021484 3.769531 -21.503908 2.000000 -2.000000 0.000000 -51.171871 31.132814 9.741381 -71.143616 -1.173150 -2.725422 24.514963 60.791183 44.386780 -2.000000 2.000000 0.000000 40.263672 -25.048830 45.273441 58.805252 1.280174 -2.210520 -34.979801 -69.838074 30.125765 -24.151602 9.459350 -0.242822 58.728275 -2.789162 -4.354457 -0.911208 11.963005 -7.527857 11.390080 -10.281171 -28.137424 33.605789 3.783652 2.745314 4.963048 -1.023481 -0.420376 
-20.539623 51.182922 52.540241 -5.996094 -2.470703 -0.293392 52.849258 -27.129904 28.771894 -17.148438 13.828125 -0.419922 51.063168 8.107644 2.471410 -86.767578 5.605468 -30.400393 2.000000 -2.000000 0.000000 -56.542969 34.521484 -1.376953 -73.420746 -1.079049 -2.789550 16.256481 58.206661 32.668602 -2.000000 2.000000 0.000000 35.498047 -27.724611 62.573582 63.381683 1.312720 -2.433755 -48.039402 -63.552254 42.741711 -21.347824 9.140999 2.012164 42.058346 -4.175097 -3.490826 -4.582168 6.867886 -4.310882 22.559267 -6.280139 -30.259108 20.266846 4.901476 1.920525 9.372970 1.159823 -2.086662 
-21.376949 51.301090 56.824223 -6.005859 -2.099609 0.907845 50.891392 -29.149229 29.909464 -17.246092 15.039063 -0.554107 51.063168 8.107644 2.471410 -86.425781 5.302734 -31.922928 2.000000 -2.000000 0.000000 -67.509766 33.945309 -19.267578 -74.982689 -0.326096 -2.794116 9.671049 51.895397 20.654886 -2.000000 2.000000 0.000000 33.095707 -30.683598 69.789940 67.430809 1.354992 -2.656205 -46.305111 -60.929890 41.861092 -14.841733 9.090323 5.030983 21.431154 -4.941341 -2.062489 -5.471478 -1.967706 -4.226918 25.988518 -5.909876 -30.135553 16.936174 4.856257 1.581942 31.283024 1.986178 -3.788308 
-22.176907 50.513275 61.115013 -6.347656 -1.923828 0.888344 55.987442 -28.514631 25.726990 -19.023438 13.076172 -1.201172 51.063168 8.107644 2.471410 -86.630859 4.619141 -26.865234 2.000000 -2.000000 0.000000 -73.935547 28.964844 -31.972658 -77.091217 -0.412143 -2.759789 9.583195 46.991673 14.870275 -2.000000 2.000000 0.000000 34.599609 -36.250004 59.847736 70.407120 0.920367 -2.583632 -25.211088 -62.139969 25.723917 -9.059794 9.234622 8.149866 8.693114 -5.232746 -0.964970 -14.660979 -11.040095 -7.758797 36.097435 -2.023727 -28.450626 0.521488 5.319742 0.221542 47.983475 2.535411 -5.614468 
-22.972233 50.741749 65.409058 -7.753906 -1.923828 -0.810875 64.754768 -25.743635 19.140682 -21.718750 9.218750 -2.000388 51.063168 8.107644 2.471410 -87.158203 4.628905 -19.344915 2.000000 -2.000000 0.000000 -71.582031 23.173828 -32.525455 -79.721519 -0.154835 -2.540011 13.093893 46.338249 13.566596 -2.000000 2.000000 0.000000 44.882816 -43.115234 33.928875 73.222122 0.847466 -2.675866 8.791865 -58.957668 -0.854342 -7.711651 10.901953 8.708216 17.189159 -5.070358 -1.699116 -16.547691 -9.015340 -5.907072 28.751131 -7.442892 -27.311552 14.792899 5.099213 1.433877 51.927837 2.254498 -0.610648 
-23.795332 49.536396 69.702637 -9.677734 -2.080078 -4.062854 73.096970 -21.308794 12.516955 -24.511721 5.097657 -2.636719 51.063168 8.107644 2.471410 -87.871094 4.794922 -12.304688 2.000000 -2.000000 0.000000 -64.833984 17.128906 -27.333982 -82.543488 -0.233122 -2.877735 19.894783 47.479023 15.367193 -2.000000 2.000000 0.000000 64.521484 -44.658203 -0.006862 75.851051 0.753932 -2.749868 34.300720 -50.036541 -20.452902 -4.353902 11.925212 9.673095 24.049707 -4.848425 -2.234408 -18.154861 -5.536579 -5.078284 15.456903 -15.077554 -23.472216 38.165409 3.364099 2.972113 50.870850 1.973064 12.812093 
-24.678831 49.914551 73.992172 -11.464843 -2.597656 -7.402786 78.284378 -16.939587 7.309591 -26.318359 3.037110 -2.929688 51.063168 8.107644 2.471410 -88.281250 3.291015 -5.526783 2.000000 -2.000000 0.000000 -56.953125 11.435547 -20.322266 -85.533157 -0.109204 -2.933815 27.068045 48.004120 18.320822 -2.000000 2.000000 0.000000 81.230469 -40.830078 -24.820835 79.699234 0.247537 -2.788937 45.500370 -42.410770 -30.747189 0.253233 12.350171 10.808210 28.697546 -4.661489 -2.590145 -19.406221 -1.649508 -4.934238 0.065557 -22.159569 -17.493406 62.418259 2.192677 4.233513 46.473869 2.634742 26.485250 
